<mxfile host="app.diagrams.net" modified="2024-03-04T21:52:04.138Z" agent="Mozilla/5.0 (Windows NT 10.0; Win64; x64) AppleWebKit/537.36 (KHTML, like Gecko) Chrome/122.0.0.0 Safari/537.36" etag="hLAEAaMb3FRe5nqTuRY_" version="24.0.1" type="github">
  <diagram name="Page-1" id="QgJIO491M2pIu1O26DXH">
    <mxGraphModel dx="1032" dy="493" grid="1" gridSize="10" guides="1" tooltips="1" connect="1" arrows="1" fold="1" page="1" pageScale="1" pageWidth="1100" pageHeight="850" background="#FFFFFF" math="0" shadow="0">
      <root>
        <mxCell id="0" />
        <mxCell id="1" parent="0" />
        <mxCell id="LSbo0EbJHE_Xdc58MIvz-1" value="1" style="ellipse;whiteSpace=wrap;html=1;aspect=fixed;" parent="1" vertex="1">
          <mxGeometry x="520" y="280" width="40" height="40" as="geometry" />
        </mxCell>
        <mxCell id="LSbo0EbJHE_Xdc58MIvz-2" value="" style="endArrow=classic;html=1;rounded=0;entryX=0.5;entryY=0;entryDx=0;entryDy=0;exitX=0.5;exitY=1;exitDx=0;exitDy=0;" parent="1" source="LSbo0EbJHE_Xdc58MIvz-12" target="LSbo0EbJHE_Xdc58MIvz-1" edge="1">
          <mxGeometry width="50" height="50" relative="1" as="geometry">
            <mxPoint x="540" y="230" as="sourcePoint" />
            <mxPoint x="590" y="320" as="targetPoint" />
          </mxGeometry>
        </mxCell>
        <mxCell id="LSbo0EbJHE_Xdc58MIvz-3" value="def={b0, b1}&lt;div&gt;p-use{b0}&lt;/div&gt;" style="text;html=1;align=left;verticalAlign=middle;resizable=0;points=[];autosize=1;strokeColor=none;fillColor=none;" parent="1" vertex="1">
          <mxGeometry x="570" y="280" width="90" height="40" as="geometry" />
        </mxCell>
        <mxCell id="LSbo0EbJHE_Xdc58MIvz-4" value="2" style="ellipse;whiteSpace=wrap;html=1;aspect=fixed;" parent="1" vertex="1">
          <mxGeometry x="450" y="380" width="40" height="40" as="geometry" />
        </mxCell>
        <mxCell id="LSbo0EbJHE_Xdc58MIvz-5" value="" style="endArrow=classic;html=1;rounded=0;exitX=0;exitY=1;exitDx=0;exitDy=0;entryX=0.5;entryY=0;entryDx=0;entryDy=0;" parent="1" source="LSbo0EbJHE_Xdc58MIvz-1" target="LSbo0EbJHE_Xdc58MIvz-4" edge="1">
          <mxGeometry width="50" height="50" relative="1" as="geometry">
            <mxPoint x="550" y="370" as="sourcePoint" />
            <mxPoint x="600" y="320" as="targetPoint" />
          </mxGeometry>
        </mxCell>
        <mxCell id="LSbo0EbJHE_Xdc58MIvz-6" value="b0 &amp;lt;= this.lower" style="text;html=1;align=center;verticalAlign=middle;resizable=0;points=[];autosize=1;strokeColor=none;fillColor=none;" parent="1" vertex="1">
          <mxGeometry x="400" y="330" width="110" height="30" as="geometry" />
        </mxCell>
        <mxCell id="LSbo0EbJHE_Xdc58MIvz-7" value="3" style="ellipse;whiteSpace=wrap;html=1;aspect=fixed;" parent="1" vertex="1">
          <mxGeometry x="595" y="380" width="40" height="40" as="geometry" />
        </mxCell>
        <mxCell id="LSbo0EbJHE_Xdc58MIvz-8" value="" style="endArrow=classic;html=1;rounded=0;exitX=1;exitY=1;exitDx=0;exitDy=0;entryX=0.5;entryY=0;entryDx=0;entryDy=0;" parent="1" source="LSbo0EbJHE_Xdc58MIvz-1" target="LSbo0EbJHE_Xdc58MIvz-7" edge="1">
          <mxGeometry width="50" height="50" relative="1" as="geometry">
            <mxPoint x="550" y="370" as="sourcePoint" />
            <mxPoint x="600" y="320" as="targetPoint" />
          </mxGeometry>
        </mxCell>
        <mxCell id="LSbo0EbJHE_Xdc58MIvz-9" value="b0 &amp;gt; this.lower" style="text;html=1;align=center;verticalAlign=middle;resizable=0;points=[];autosize=1;strokeColor=none;fillColor=none;" parent="1" vertex="1">
          <mxGeometry x="580" y="330" width="100" height="30" as="geometry" />
        </mxCell>
        <mxCell id="LSbo0EbJHE_Xdc58MIvz-10" value="c-use{b0, b1}" style="text;html=1;align=center;verticalAlign=middle;resizable=0;points=[];autosize=1;strokeColor=none;fillColor=none;" parent="1" vertex="1">
          <mxGeometry x="640" y="385" width="90" height="30" as="geometry" />
        </mxCell>
        <mxCell id="LSbo0EbJHE_Xdc58MIvz-11" value="c-use{b1}" style="text;html=1;align=center;verticalAlign=middle;resizable=0;points=[];autosize=1;strokeColor=none;fillColor=none;" parent="1" vertex="1">
          <mxGeometry x="380" y="390" width="70" height="30" as="geometry" />
        </mxCell>
        <mxCell id="LSbo0EbJHE_Xdc58MIvz-12" value="Start" style="ellipse;whiteSpace=wrap;html=1;" parent="1" vertex="1">
          <mxGeometry x="500" y="170" width="80" height="60" as="geometry" />
        </mxCell>
        <mxCell id="LSbo0EbJHE_Xdc58MIvz-13" value="End" style="ellipse;whiteSpace=wrap;html=1;" parent="1" vertex="1">
          <mxGeometry x="500" y="440" width="80" height="60" as="geometry" />
        </mxCell>
        <mxCell id="LSbo0EbJHE_Xdc58MIvz-14" value="" style="endArrow=classic;html=1;rounded=0;exitX=0.5;exitY=1;exitDx=0;exitDy=0;entryX=0;entryY=0.5;entryDx=0;entryDy=0;" parent="1" source="LSbo0EbJHE_Xdc58MIvz-4" target="LSbo0EbJHE_Xdc58MIvz-13" edge="1">
          <mxGeometry width="50" height="50" relative="1" as="geometry">
            <mxPoint x="570" y="420" as="sourcePoint" />
            <mxPoint x="620" y="370" as="targetPoint" />
          </mxGeometry>
        </mxCell>
        <mxCell id="LSbo0EbJHE_Xdc58MIvz-15" value="" style="endArrow=classic;html=1;rounded=0;exitX=0.5;exitY=1;exitDx=0;exitDy=0;entryX=1;entryY=0.5;entryDx=0;entryDy=0;" parent="1" source="LSbo0EbJHE_Xdc58MIvz-7" target="LSbo0EbJHE_Xdc58MIvz-13" edge="1">
          <mxGeometry width="50" height="50" relative="1" as="geometry">
            <mxPoint x="910" y="480" as="sourcePoint" />
            <mxPoint x="940" y="530" as="targetPoint" />
          </mxGeometry>
        </mxCell>
      </root>
    </mxGraphModel>
  </diagram>
</mxfile>
